<svg xmlns="http://www.w3.org/2000/svg" xmlns:xlink="http://www.w3.org/1999/xlink" viewBox="0 0 607.52 609.12"><defs><style>.cls-1{fill:#1c96ff;}.cls-2{fill:url(#linear-gradient);}.cls-3{fill:url(#linear-gradient-2);}</style><linearGradient id="linear-gradient" x1="363.99" y1="833.4" x2="363.99" y2="285.4" gradientUnits="userSpaceOnUse"><stop offset="0.31" stop-color="#001eb6"/><stop offset="0.37" stop-color="#042ec0"/><stop offset="0.57" stop-color="#0e5adb"/><stop offset="0.75" stop-color="#167bef"/><stop offset="0.9" stop-color="#1a8ffb"/><stop offset="1" stop-color="#1c96ff"/></linearGradient><linearGradient id="linear-gradient-2" x1="485.83" y1="-130.08" x2="485.83" y2="283.28" gradientUnits="userSpaceOnUse"><stop offset="0.35" stop-color="#001eb6"/><stop offset="0.42" stop-color="#0532c2"/><stop offset="0.6" stop-color="#0f5ddc"/><stop offset="0.77" stop-color="#167cef"/><stop offset="0.9" stop-color="#1a8ffb"/><stop offset="1" stop-color="#1c96ff"/></linearGradient></defs><g id="Layer_2" data-name="Layer 2"><g id="Layer_4" data-name="Layer 4"><path class="cls-1" d="M363.93,430.25A181.85,181.85,0,0,1,182,609.12c-1.12,0-2.21,0-3.34,0C80.27,607.48,0,524.94,0,425.13V254L120.51,133.51V426.24a121.74,121.74,0,0,0,243.42,4Z"/><path class="cls-2" d="M607.48,180.83a121.74,121.74,0,0,0-243.34-1.94c-.07,1-.09,2.06-.09,3.1v5.14L364,424.68a0,0,0,0,1,0,0v2.41a4.69,4.69,0,0,1,0,.75c0,.61,0,1.26,0,1.87a4,4,0,0,1,0,.5,121.74,121.74,0,0,1-243.42-4v-.52c.3,34.18,27.29,62.35,60.44,62.89a61.48,61.48,0,0,0,62.54-61.48l0-122.61,0-122.53a181.95,181.95,0,0,1,182-182c1.1,0,2.19,0,3.3,0C526.22,1.62,605.82,82.44,607.48,180.83Z"/><path class="cls-3" d="M607.52,184V355.1L487,475.61V184c0-34.44-27.09-62.92-60.42-63.46l-1.08,0a61.41,61.41,0,0,0-61.37,58.38,121.74,121.74,0,0,1,243.34,1.94C607.5,181.89,607.52,182.94,607.52,184Z"/></g></g></svg>